<?xml version="1.0" encoding="UTF-8"?>
<svg id="Layer_1" xmlns="http://www.w3.org/2000/svg" version="1.1" viewBox="0 0 200 200">
  <!-- Generator: Adobe Illustrator 29.6.1, SVG Export Plug-In . SVG Version: 2.1.1 Build 9)  -->
  <path d="M14.69,103.4c-.01-28.87,0-57.76,0-86.64h170.62v165.71c-.8-.09-.85-.05-.76.76H14.69c0-17.65.01-35.32,0-52.97,1.13.33,1.2-1.43,0-1.13,0-.5,0-1.01,0-1.51,1.13.41,1.22-1.86,0-1.51,0-2.14,0-4.29,0-6.43,1.13.33,1.2-1.43,0-1.13,0-.63,0-1.26,0-1.89,1.67.4,1.73-1.51,0-1.13,0-3.78,0-7.57,0-11.35,1.12.23,1.19-.97,0-.76ZM69.93,22.06H19.99v48.43h49.94V22.06ZM125.16,22.06h-49.75l-.19,48.43h49.94V22.06ZM180.02,22.06h-49.56v48.43h49.56V22.06ZM20.55,75.79c-.12.19-.57.46-.57.57v47.29s.53.57.57.57h48.8s.57-.53.57-.57v-47.29s-.53-.57-.57-.57H20.55ZM125.16,75.79h-49.75l-.19,48.43h49.94v-48.43ZM180.02,75.79h-49.56v48.43h49.56v-48.43ZM69.93,129.51H19.99l.38,48.43h49.56v-48.43ZM125.16,129.51h-50.32v47.1c0,.2.58.84.38,1.32h49.94v-48.43ZM180.02,129.51h-49.56v48.43h49.56v-48.43Z" fill="#fff"/>
  <path d="M185.31,182.47v.76s-.76,0-.76,0c-.09-.8-.05-.85.76-.76Z" fill="#285080"/>
  <path d="M44.25,50.87l-10.27,10.74c-1.02.8-4.55-3.32-4.55-3.8.78-1.85,11.12-10.76,10.96-11.68-3.5-3.92-7.75-7.3-10.96-11.4,0-.56,3.43-4.03,3.93-3.95l11.4,10.96,11.16-10.82c.29-.25.46-.15.75,0,.44.23,3.82,3.78,3.76,4.13l-10.96,11.4,10.98,11.35-4.29,3.95-10.63-10.58-1.3-.31Z" fill="#3990e5"/>
  <path d="M151.4,161.8c-1.13,1.14-6.28,7.15-7.21,7.39-1.07.28-3.6-2.89-4.64-3.59l10.97-11.69-10.82-11.16c-.25-.29-.15-.46,0-.75.23-.44,3.78-3.82,4.13-3.76l11.4,11.32,11.15-11.17c.7-.32,4.5,3.09,4.11,4.47-.42,1.51-10.91,10.28-10.91,11.05l11.34,11.35c-.93.67-3.46,3.98-4.34,3.99l-11.4-10.96-3.79,3.51Z" fill="#3990e5"/>
  <path d="M98.6,81.57c22.56-1.87,27.7,31.42,5.77,36.41-26.06,5.93-31.87-34.24-5.77-36.41ZM98.98,88.37c-15.29,1.4-13.43,24.36,1.77,23.35,15.46-1.02,13.82-24.78-1.77-23.35Z" fill="#1bbbbb"/>
  <path d="M152.69,27.84c14.6-1.67,25.42,12.7,19.45,26.26-5.5,12.5-23.14,14.51-31.67,3.9-8.9-11.08-1.98-28.54,12.22-30.17ZM153.83,34.66c-15.28,1.63-13.01,25.05,2.88,23.31,14.73-1.62,12.81-24.98-2.88-23.31Z" fill="#1bbbbb"/>
</svg>